<svg width="635" height="678" viewBox="0 0 635 678" fill="none" xmlns="http://www.w3.org/2000/svg">
<path d="M467 347.5C467 405.6 423.111 451 371 451C318.889 451 275 405.6 275 347.5C275 289.4 318.889 244 371 244C423.111 244 467 289.4 467 347.5Z" fill="white" stroke="#1D6F12" stroke-width="30"/>
<path d="M526 339H475" stroke="#1D6F12" stroke-width="20"/>
<line x1="196" y1="493.015" x2="196" y2="190" stroke="#1D6F12" stroke-width="70"/>
<path d="M529.167 84.75H105.833C98.8161 84.75 92.0864 87.7263 87.1245 93.0242C82.1626 98.3221 79.375 105.508 79.375 113V565C79.375 572.492 82.1626 579.678 87.1245 584.976C92.0864 590.274 98.8161 593.25 105.833 593.25H529.167C536.184 593.25 542.914 590.274 547.876 584.976C552.837 579.678 555.625 572.492 555.625 565V113C555.625 105.508 552.837 98.3221 547.876 93.0242C542.914 87.7263 536.184 84.75 529.167 84.75ZM502.708 536.75H132.292V141.25H502.708V536.75Z" fill="#1D6F12"/>
</svg>
